<svg xmlns="http://www.w3.org/2000/svg" width="64" height="64" fill="none" viewBox="0 0 64 64"><clipPath id="a" width="64" height="64" x="0" y="0" maskUnits="userSpaceOnUse" style="mask-type:luminance"><path fill="#fff" d="M64 0H0v64h64z" style="fill:#fff;fill-opacity:1"></path></clipPath><g clip-path="url(#a)"><path fill="#619b27" d="M32 64c17.673 0 32-14.327 32-32S49.673 0 32 0 0 14.327 0 32s14.327 32 32 32" style="fill:#619b27;fill:color(display-p3 .3804 .6078 .1529);fill-opacity:1"></path><path fill="#ffd400" d="m4 32 28-18.667L60 32 32 50.667z" style="fill:#ffd400;fill:color(display-p3 1 .8314 0);fill-opacity:1"></path><path fill="#191977" d="M32 44c6.627 0 12-5.373 12-12s-5.373-12-12-12-12 5.373-12 12 5.373 12 12 12" style="fill:#191977;fill:color(display-p3 .098 .098 .4667);fill-opacity:1"></path><path fill="#fff" d="M25.333 28c7.064 0 13.474 2.835 18.165 7.422.147-.493.254-1.002.337-1.52-4.872-4.488-11.371-7.235-18.502-7.235-1.438 0-2.85.113-4.23.328-.216.472-.414.954-.569 1.456a26 26 0 0 1 4.8-.451" style="fill:#fff;fill-opacity:1"></path></g></svg>