<svg width="120" height="120" viewBox="0 0 120 120" fill="none" xmlns="http://www.w3.org/2000/svg">
<circle cx="60" cy="60" r="60" fill="#E9D5FF"/>
<circle cx="60" cy="60" r="46" fill="#A855F7"/>
<path d="M78.6666 62.3337C78.6666 74.0004 70.4999 79.8337 60.7933 83.2171C60.285 83.3893 59.7328 83.3811 59.2299 83.1937C49.4999 79.8337 41.3333 74.0004 41.3333 62.3337V46.0004C41.3333 45.3816 41.5791 44.7881 42.0167 44.3505C42.4543 43.9129 43.0477 43.6671 43.6666 43.6671C48.3333 43.6671 54.1666 40.8671 58.2266 37.3204C58.7209 36.8981 59.3497 36.666 59.9999 36.666C60.6501 36.666 61.2789 36.8981 61.7733 37.3204C65.8566 40.8904 71.6666 43.6671 76.3333 43.6671C76.9521 43.6671 77.5456 43.9129 77.9832 44.3505C78.4208 44.7881 78.6666 45.3816 78.6666 46.0004V62.3337Z" stroke="#F8F7F7" stroke-width="2.91667" stroke-linecap="round" stroke-linejoin="round"/>
</svg>
