<svg width="120" height="120" viewBox="0 0 120 120" fill="none" xmlns="http://www.w3.org/2000/svg">
<circle cx="60" cy="60" r="60" fill="#E9D5FF"/>
<circle cx="60" cy="60" r="46" fill="#A855F7"/>
<path d="M61.4174 84.601C61.5061 84.8219 61.6602 85.0104 61.8591 85.1412C62.058 85.272 62.2921 85.3389 62.5301 85.3328C62.768 85.3267 62.9985 85.2479 63.1904 85.1071C63.3823 84.9663 63.5266 84.7701 63.6038 84.545L78.7704 40.2116C78.8451 40.0049 78.8594 39.7811 78.8115 39.5666C78.7637 39.352 78.6557 39.1555 78.5003 39.0001C78.3449 38.8447 78.1484 38.7367 77.9338 38.6889C77.7193 38.641 77.4955 38.6553 77.2888 38.73L32.9554 53.8966C32.7303 53.9738 32.5341 54.1181 32.3933 54.31C32.2525 54.502 32.1737 54.7324 32.1676 54.9703C32.1615 55.2083 32.2284 55.4424 32.3592 55.6413C32.49 55.8402 32.6785 55.9943 32.8994 56.083L51.4028 63.503C51.9877 63.7372 52.5192 64.0874 52.9651 64.5325C53.411 64.9776 53.7622 65.5084 53.9974 66.093L61.4174 84.601Z" stroke="white" stroke-width="2.91667" stroke-linecap="round" stroke-linejoin="round"/>
<path d="M78.4927 39.0098L52.9661 64.5341" stroke="white" stroke-width="2.91667" stroke-linecap="round" stroke-linejoin="round"/>
</svg>
