<svg width="400" height="400" viewBox="0 0 400 400" fill="none" xmlns="http://www.w3.org/2000/svg">
<rect width="400" height="400" fill="#FF00FF"/>
<path d="M337.999 138.845C339.237 139.56 340 140.881 340 142.31V176C340 178.209 338.209 180 336 180H63.9999C61.7908 180 59.9999 178.209 59.9999 176V144C59.9999 141.791 61.7908 140 63.9999 140H256.237C257.26 140 257.623 138.645 256.737 138.134L200.465 105.651C198.551 104.547 197.895 102.1 199 100.187L215 72.4743C216.105 70.5613 218.551 69.9057 220.464 71.0099L337.999 138.845Z" fill="white"/>
<path d="M62.0005 261.155C60.7626 260.44 60 259.119 60 257.69V224C60 221.791 61.7909 220 64 220H336C338.209 220 340 221.791 340 224V256C340 258.209 338.209 260 336 260H143.763C142.74 260 142.377 261.355 143.263 261.866L199.535 294.349C201.449 295.453 202.104 297.9 201 299.813L185 327.526C183.895 329.439 181.449 330.094 179.536 328.99L62.0005 261.155Z" fill="white"/>
</svg>
