<svg width="400" height="400" viewBox="0 0 400 400" fill="none" xmlns="http://www.w3.org/2000/svg">
<rect width="400" height="400" fill="#004A2E"/>
<rect width="400" height="400" fill="#004A2E"/>
<path d="M196.362 254.702L253.312 254.702C254.383 254.702 255.374 254.13 255.91 253.202L318.079 145.521C318.615 144.592 318.615 143.449 318.079 142.521L257.446 37.5002C256.291 35.5002 253.404 35.5001 252.25 37.5001L223.723 86.9105C223.187 87.8387 223.187 88.9823 223.723 89.9105L254.149 142.611C254.685 143.54 254.685 144.683 254.149 145.611L193.764 250.202C192.61 252.202 194.053 254.702 196.362 254.702Z" fill="#4BDE7F"/>
<path d="M204.632 144.66L147.683 144.66C146.611 144.66 145.62 145.232 145.085 146.16L82.9148 253.841C82.3789 254.769 82.379 255.913 82.9148 256.841L143.548 361.861C144.703 363.861 147.59 363.861 148.745 361.861L177.272 312.451C177.808 311.523 177.808 310.379 177.272 309.451L146.845 256.75C146.309 255.822 146.309 254.678 146.845 253.75L207.23 149.16C208.385 147.16 206.941 144.66 204.632 144.66Z" fill="white"/>
</svg>
